<?xml version="1.0" encoding="utf-8"?>
<!-- Generator: Adobe Illustrator 15.0.0, SVG Export Plug-In . SVG Version: 6.00 Build 0)  -->
<!DOCTYPE svg PUBLIC "-//W3C//DTD SVG 1.1//EN" "http://www.w3.org/Graphics/SVG/1.1/DTD/svg11.dtd">
<svg version="1.1" id="Layer_1" xmlns="http://www.w3.org/2000/svg" xmlns:xlink="http://www.w3.org/1999/xlink" x="0px" y="0px"
	 width="512px" height="512px" viewBox="0 0 512 512" enable-background="new 0 0 512 512" xml:space="preserve">
<g>
	<path fill-rule="evenodd" clip-rule="evenodd" d="M56.165,46.996c38.961,0,84.344,0,126.972,0c43.198,0,83.36-0.134,106.285,19.973
		c16.28,14.278,26.809,37.871,24.254,69.906c-3.351,42.011-32.145,62.709-69.906,72.045c22.721,33.633,45.864,73.022,71.332,106.286
		c14.313-19.451,26.154-41.375,40.659-60.633c27.345,0,54.688,0,82.032,0c0.646,3.069-3.623,8.153-6.419,12.128
		c-19.808,28.14-42.34,58.957-62.06,87.737c23.709,37.399,52.135,73.886,74.186,110.565c-29.008,0-58.018,0-87.026,0
		c-15.186-21.905-27.409-46.776-40.658-70.619c-16.619,22.852-31.382,47.56-47.793,70.619c-27.345,0-54.688,0-82.032,0
		c24.456-37.126,49.545-73.621,74.898-109.853c-20.996-31.096-44.817-67.593-67.766-102.004
		c-11.399-17.096-18.708-40.194-51.359-34.24c0,39.946,0,79.893,0,119.838c-28.771,0-57.541,0-86.312,0
		C55.927,241.733,54.5,142.819,56.165,46.996z M141.764,105.489c0,20.449,0,40.897,0,61.346c25.161-1.507,52.484,3.373,71.333-6.42
		c17.609-9.149,19.428-41.455,1.426-52.072c-16.779-9.897-46.715-2.649-72.045-4.994
		C141.646,103.469,141.703,104.476,141.764,105.489z"/>
</g>
</svg>
